<svg width="323" height="224" viewBox="0 0 323 224" fill="none" xmlns="http://www.w3.org/2000/svg">
<g clip-path="url(#clip0)">
<path d="M29.1922 97.5566C23.2124 102.449 32.9976 145.395 32.9976 145.395C32.9976 145.395 35.172 210.901 39.7928 213.891C44.4136 216.881 54.7423 213.619 58.8195 213.076C62.8966 212.532 59.3631 172.032 53.3833 157.083C47.4035 142.133 52.0242 120.389 52.0242 120.389L84.3696 126.64C84.3696 126.64 64.7993 143.221 65.6147 146.754C66.4301 150.288 87.3595 162.247 91.1648 162.791C94.9702 163.335 102.309 141.046 108.832 125.825C115.356 110.603 64.2557 100.818 64.2557 100.818L57.1886 87.4996C57.1886 87.4996 35.1721 92.664 29.1922 97.5566Z" fill="#2F2E41"/>
<path d="M45.4262 215.019C45.4262 215.019 43.4538 221.922 45.4262 221.922C47.3986 221.922 51.0147 223.895 56.6031 223.237C62.1916 222.58 60.5479 215.676 56.6031 214.69C52.6583 213.704 53.6445 205.814 53.6445 205.814C52.3296 203.185 46.0836 206.472 46.0836 206.472L45.4262 215.019Z" fill="#2F2E41"/>
<path d="M73.4285 160.123C73.4285 160.123 70.0446 166.455 71.9726 166.871C73.9007 167.287 77.0195 169.977 82.6209 170.513C88.2224 171.049 88.0715 163.954 84.4234 162.158C80.7753 160.362 83.4031 152.858 83.4031 152.858C82.6723 150.01 75.8736 151.906 75.8736 151.906L73.4285 160.123Z" fill="#2F2E41"/>
<path d="M32.8617 38.7098C33.4053 39.7971 30.959 53.3875 30.959 53.3875L33.1335 57.1929C33.1335 57.1929 45.6367 52.3003 43.734 51.4849C41.8314 50.6695 42.1032 40.6125 42.1032 40.6125C42.1032 40.6125 32.318 37.6226 32.8617 38.7098Z" fill="#AA8484"/>
<path d="M37.5678 42.899C46.772 42.899 54.2335 35.4375 54.2335 26.2333C54.2335 17.0291 46.772 9.56763 37.5678 9.56763C28.3636 9.56763 20.9021 17.0291 20.9021 26.2333C20.9021 35.4375 28.3636 42.899 37.5678 42.899Z" fill="#2F2E41"/>
<path d="M36.4184 17.5277C40.227 17.5277 43.3145 14.4402 43.3145 10.6316C43.3145 6.82298 40.227 3.73547 36.4184 3.73547C32.6097 3.73547 29.5222 6.82298 29.5222 10.6316C29.5222 14.4402 32.6097 17.5277 36.4184 17.5277Z" fill="#2F2E41"/>
<path d="M39.4354 13.755C39.6741 13.7798 39.9138 13.7922 40.1538 13.7923C41.0594 13.7923 41.9561 13.6139 42.7928 13.2674C43.6295 12.9208 44.3897 12.4128 45.0301 11.7725C45.6705 11.1321 46.1784 10.3719 46.525 9.53519C46.8716 8.69851 47.0499 7.80176 47.0499 6.89615C47.0499 5.99053 46.8716 5.09379 46.525 4.25711C46.1784 3.42043 45.6705 2.6602 45.0301 2.01984C44.3897 1.37947 43.6295 0.871502 42.7928 0.524938C41.9561 0.178374 41.0594 -2.69894e-08 40.1538 0C39.9138 6.17059e-05 39.6741 0.0125061 39.4354 0.0372846C41.1308 0.214911 42.7003 1.01412 43.8411 2.28071C44.9819 3.54731 45.6132 5.19153 45.6132 6.89615C45.6132 8.60077 44.9819 10.245 43.8411 11.5116C42.7003 12.7782 41.1308 13.5774 39.4354 13.755Z" fill="#2F2E41"/>
<path d="M38.0259 45.7768C44.3307 45.7768 49.4419 40.6657 49.4419 34.3608C49.4419 28.0559 44.3307 22.9448 38.0259 22.9448C31.721 22.9448 26.6099 28.0559 26.6099 34.3608C26.6099 40.6657 31.721 45.7768 38.0259 45.7768Z" fill="#AA8484"/>
<path d="M21.5817 51.8925C18.0482 52.708 12.0684 61.4059 12.0684 61.4059L21.5817 70.9192C21.5817 70.9192 28.3769 96.4693 29.1924 97.5566C34.5345 104.679 58.5478 88.8587 58.5478 88.8587C58.5478 88.8587 57.5965 81.1121 58.1401 77.3067C58.663 73.6469 56.1015 66.2985 56.1015 66.2985C56.1015 66.2985 65.0713 62.4931 63.1686 58.6878C61.2659 54.8825 49.5781 46.1846 44.6856 49.1745C39.793 52.1644 30.0078 49.1745 30.0078 49.1745C30.0078 49.1745 25.1152 51.0771 21.5817 51.8925Z" fill="#E6E6E6"/>
<path d="M91.0288 106.662C91.0288 106.662 106.522 119.981 110.327 117.263C114.133 114.545 95.6496 105.031 95.6496 105.031L91.0288 106.662Z" fill="#AA8484"/>
<path d="M21.4456 102.042C23.62 104.488 33.9488 98.2362 32.6246 95.4599C31.3004 92.6835 23.0764 98.2362 23.0764 98.2362C23.0764 98.2362 19.2711 99.5952 21.4456 102.042Z" fill="#AA8484"/>
<path d="M21.5815 65.2113L10.1655 86.4124C10.1655 86.4124 23.2124 97.2848 24.8432 97.5566C26.4741 97.8284 21.5815 104.895 21.5815 104.895C21.5815 104.895 6.90381 94.5667 1.19581 89.4023C-4.51219 84.2379 12.0682 61.4059 12.0682 61.4059L16.9608 58.416L21.5815 65.2113Z" fill="#E6E6E6"/>
<path d="M54.7423 64.3958L68.061 85.0533C68.061 85.0533 88.4467 107.885 91.1648 108.973C93.8829 110.06 97.1446 104.895 97.1446 104.895L72.6817 75.2682L63.4402 58.6878L59.9067 57.3287L54.7423 64.3958Z" fill="#E6E6E6"/>
<path d="M37.5675 27.6933C43.9153 27.6933 49.0611 24.6058 49.0611 20.7971C49.0611 16.9885 43.9153 13.901 37.5675 13.901C31.2198 13.901 26.074 16.9885 26.074 20.7971C26.074 24.6058 31.2198 27.6933 37.5675 27.6933Z" fill="#2F2E41"/>
<path d="M69.8111 169.589C69.4344 169.59 69.0733 169.74 68.8069 170.006C68.5405 170.272 68.3907 170.633 68.3903 171.01V219.47C68.3907 219.847 68.5405 220.208 68.8069 220.475C69.0733 220.741 69.4344 220.891 69.8111 220.891H235.053C235.429 220.891 235.79 220.741 236.057 220.475C236.323 220.208 236.473 219.847 236.473 219.47V171.01C236.473 170.633 236.323 170.272 236.057 170.006C235.79 169.74 235.429 169.59 235.053 169.589L69.8111 169.589Z" fill="#E6E6E6"/>
<path d="M71.9507 217.331H232.913V173.15H71.9507V217.331Z" fill="white"/>
<path d="M212.595 208.165C212.286 208.165 211.98 208.225 211.694 208.344C211.408 208.462 211.148 208.635 210.929 208.854C210.711 209.072 210.537 209.332 210.418 209.617C210.3 209.903 210.239 210.209 210.239 210.519C210.239 210.828 210.3 211.134 210.418 211.42C210.537 211.706 210.711 211.965 210.929 212.184C211.148 212.403 211.408 212.576 211.694 212.694C211.98 212.812 212.286 212.873 212.595 212.872H222.01C222.634 212.872 223.232 212.624 223.674 212.183C224.115 211.742 224.363 211.143 224.363 210.519C224.363 209.895 224.115 209.296 223.674 208.855C223.232 208.413 222.634 208.165 222.01 208.165H212.595Z" fill="#345678"/>
<path d="M224.363 203.6H115.687V204.219H224.363V203.6Z" fill="#E6E6E6"/>
<path d="M92.9701 208.948C100.541 208.948 106.678 202.811 106.678 195.24C106.678 187.669 100.541 181.532 92.9701 181.532C85.3993 181.532 79.2618 187.669 79.2618 195.24C79.2618 202.811 85.3993 208.948 92.9701 208.948Z" fill="#345678"/>
<path d="M115.858 200.142L115.515 199.627L126.808 192.098L134.552 195.815L145.691 188.699L167.849 198.151L185.494 189.483L202.628 196.429L224.158 177.36L224.568 177.824L202.751 197.148L185.518 190.161L167.867 198.832L145.749 189.397L134.595 196.523L126.858 192.809L115.858 200.142Z" fill="#3F3D56"/>
<path d="M117.699 208.489C117.435 208.489 117.173 208.54 116.928 208.641C116.684 208.742 116.462 208.891 116.275 209.077C116.088 209.264 115.939 209.486 115.838 209.731C115.736 209.975 115.684 210.237 115.684 210.501C115.684 210.766 115.736 211.028 115.838 211.272C115.939 211.517 116.088 211.738 116.275 211.925C116.462 212.112 116.684 212.261 116.928 212.362C117.173 212.462 117.435 212.514 117.699 212.514H138.754C139.287 212.513 139.798 212.301 140.175 211.924C140.552 211.546 140.763 211.035 140.763 210.501C140.763 209.968 140.552 209.457 140.175 209.079C139.798 208.702 139.287 208.49 138.754 208.489H117.699Z" fill="#E6E6E6"/>
<path d="M98.2056 189.108H100.348L95.8906 193.518C95.112 194.286 94.0626 194.716 92.9694 194.716C91.8762 194.716 90.8268 194.286 90.0482 193.518L85.5918 189.108H87.7338L91.1195 192.458C91.6127 192.944 92.2773 193.217 92.9697 193.217C93.6621 193.217 94.3268 192.944 94.8199 192.458L98.2056 189.108ZM87.7066 201.373H85.5646L90.0488 196.935C90.8274 196.167 91.8768 195.737 92.97 195.737C94.0633 195.737 95.1126 196.167 95.8912 196.935L100.375 201.373H98.2335L94.8199 197.995C94.3268 197.509 93.6622 197.236 92.9697 197.236C92.2773 197.236 91.6127 197.509 91.1195 197.995L87.7066 201.373Z" fill="white"/>
<path d="M91.3282 14.3661C90.9515 14.3665 90.5904 14.5164 90.324 14.7827C90.0576 15.0491 89.9078 15.4102 89.9073 15.7869V64.2473C89.9078 64.624 90.0576 64.9852 90.324 65.2515C90.5904 65.5179 90.9515 65.6677 91.3282 65.6682H256.57C256.946 65.6677 257.308 65.5179 257.574 65.2515C257.84 64.9852 257.99 64.624 257.99 64.2473V15.7869C257.99 15.4102 257.84 15.0491 257.574 14.7827C257.307 14.5164 256.946 14.3665 256.57 14.3661L91.3282 14.3661Z" fill="#E6E6E6"/>
<path d="M93.468 62.1075H254.43V17.9266H93.468V62.1075Z" fill="white"/>
<path d="M234.113 52.942C233.488 52.942 232.89 53.19 232.448 53.6314C232.007 54.0727 231.759 54.6714 231.759 55.2956C231.759 55.9198 232.007 56.5184 232.448 56.9598C232.89 57.4012 233.488 57.6492 234.113 57.6492H243.527C244.151 57.6492 244.75 57.4012 245.191 56.9598C245.632 56.5184 245.88 55.9198 245.88 55.2956C245.88 54.6714 245.632 54.0727 245.191 53.6314C244.75 53.19 244.151 52.942 243.527 52.942H234.113Z" fill="#345678"/>
<path d="M245.88 48.3768H137.204V48.9961H245.88V48.3768Z" fill="#E6E6E6"/>
<path d="M114.487 53.7254C122.058 53.7254 128.196 47.588 128.196 40.0171C128.196 32.4463 122.058 26.3088 114.487 26.3088C106.916 26.3088 100.779 32.4463 100.779 40.0171C100.779 47.588 106.916 53.7254 114.487 53.7254Z" fill="#345678"/>
<path d="M137.376 44.9189L137.032 44.4036L148.325 36.875L156.069 40.5922L167.208 33.4758L167.359 33.5398L189.366 42.9277L207.011 34.2598L224.145 41.2062L245.675 22.1368L246.086 22.6004L224.269 41.9243L207.035 34.9378L189.384 43.6086L167.266 34.1737L156.112 41.2997L148.375 37.5857L137.376 44.9189Z" fill="#3F3D56"/>
<path d="M139.217 53.2659C138.683 53.2666 138.172 53.4789 137.795 53.8562C137.418 54.2336 137.207 54.7451 137.207 55.2784C137.207 55.8117 137.418 56.3232 137.795 56.7006C138.172 57.0779 138.683 57.2902 139.217 57.2909H160.271C160.805 57.2909 161.316 57.0789 161.694 56.7015C162.071 56.324 162.283 55.8122 162.283 55.2784C162.283 54.7446 162.071 54.2327 161.694 53.8553C161.316 53.4779 160.805 53.2659 160.271 53.2659H139.217Z" fill="#E6E6E6"/>
<path d="M120.003 38.4171C120.259 36.7017 118.953 35.7795 117.167 35.1643L117.746 32.8405L116.331 32.488L115.767 34.7506C115.396 34.6579 115.014 34.5705 114.635 34.4839L115.203 32.2064L113.789 31.8539L113.209 34.1769C112.901 34.1068 112.599 34.0375 112.306 33.9645L112.308 33.9573L110.357 33.4702L109.981 34.981C109.981 34.981 111.03 35.2215 111.008 35.2364C111.204 35.2599 111.382 35.3592 111.506 35.513C111.629 35.6669 111.687 35.863 111.667 36.0591L111.007 38.7064C111.057 38.7188 111.106 38.7346 111.154 38.7535L111.005 38.7164L110.08 42.4249C110.059 42.4896 110.026 42.5497 109.983 42.6017C109.939 42.6536 109.886 42.6965 109.825 42.7277C109.765 42.7589 109.699 42.7779 109.632 42.7836C109.564 42.7893 109.496 42.7816 109.431 42.7609C109.445 42.7815 108.403 42.5043 108.403 42.5043L107.701 44.1238L109.542 44.5827C109.885 44.6685 110.22 44.7584 110.55 44.843L109.965 47.1938L111.378 47.5463L111.958 45.2209C112.343 45.3256 112.718 45.4223 113.085 45.5134L112.507 47.8279L113.921 48.1804L114.507 45.8344C116.919 46.2909 118.733 46.1068 119.496 43.9256C120.111 42.1691 119.465 41.1559 118.196 40.4947C119.121 40.2808 119.817 39.6729 120.002 38.4171L120.003 38.4171ZM116.771 42.9491C116.333 44.7056 113.376 43.7564 112.417 43.5179L113.193 40.4041C114.152 40.6434 117.227 41.1172 116.771 42.9491H116.771ZM117.208 38.3917C116.809 39.9895 114.347 39.1777 113.548 38.9787L114.253 36.1546C115.051 36.3536 117.623 36.725 117.208 38.3917Z" fill="white"/>
<path d="M156.338 91.9777C155.961 91.9781 155.6 92.1279 155.334 92.3943C155.067 92.6607 154.917 93.0218 154.917 93.3985V141.859C154.917 142.236 155.067 142.597 155.334 142.863C155.6 143.129 155.961 143.279 156.338 143.28H321.579C321.956 143.279 322.317 143.129 322.583 142.863C322.85 142.597 323 142.236 323 141.859V93.3985C323 93.0218 322.85 92.6607 322.583 92.3943C322.317 92.1279 321.956 91.9781 321.579 91.9777L156.338 91.9777Z" fill="#E6E6E6"/>
<path d="M158.478 139.719H319.439V95.5382H158.478V139.719Z" fill="white"/>
<path d="M299.122 130.554C298.498 130.554 297.899 130.802 297.458 131.243C297.017 131.684 296.769 132.283 296.769 132.907C296.769 133.531 297.017 134.13 297.458 134.571C297.899 135.013 298.498 135.261 299.122 135.261H308.536C309.161 135.261 309.759 135.013 310.201 134.571C310.642 134.13 310.89 133.531 310.89 132.907C310.89 132.283 310.642 131.684 310.201 131.243C309.759 130.802 309.161 130.554 308.536 130.554H299.122Z" fill="#345678"/>
<path d="M310.89 125.988H202.213V126.608H310.89V125.988Z" fill="#E6E6E6"/>
<path d="M179.497 131.337C187.068 131.337 193.205 125.2 193.205 117.629C193.205 110.058 187.068 103.92 179.497 103.92C171.926 103.92 165.789 110.058 165.789 117.629C165.789 125.2 171.926 131.337 179.497 131.337Z" fill="#345678"/>
<path d="M202.385 122.531L202.042 122.015L213.335 114.487L221.079 118.204L232.218 111.088L232.368 111.151L254.375 120.539L272.021 111.872L289.155 118.818L310.685 99.7485L311.095 100.212L289.278 119.536L272.045 112.549L254.393 121.22L232.276 111.785L221.122 118.911L213.385 115.198L202.385 122.531Z" fill="#3F3D56"/>
<path d="M204.226 130.877C203.692 130.877 203.18 131.089 202.803 131.467C202.425 131.844 202.213 132.356 202.213 132.89C202.213 133.424 202.425 133.936 202.803 134.313C203.18 134.69 203.692 134.902 204.226 134.902H225.28C225.814 134.902 226.326 134.69 226.703 134.313C227.08 133.936 227.293 133.424 227.293 132.89C227.293 132.356 227.08 131.844 226.703 131.467C226.326 131.089 225.814 130.877 225.28 130.877H204.226Z" fill="#E6E6E6"/>
<path d="M179.495 126.663L185.045 118.848L179.495 122.125L173.949 118.848L179.495 126.663H179.495Z" fill="white"/>
<path d="M179.495 121.075H179.495L185.041 117.796L179.495 108.594H179.495L173.949 117.796L179.495 121.075Z" fill="white"/>
</g>
<defs>
<clipPath id="clip0">
<rect width="323" height="223.372" fill="white"/>
</clipPath>
</defs>
</svg>
